# xmcd
#
# Track frame offsets:
#	150
#	16754
#	32777
#	50371
#	69164
#	89544
#	106279
#	124137
#	144022
#	168422
#
# Disc length: 2835 seconds
#
# Revision: 1
# Processed by: cddbd v1.4PL0 Copyright (c) Steve Scherf et al.
# Submitted via: EasyCDDAExtractor 5.0.6
#
DISCID=770b110a
DTITLE=Swiet and Bjuster - Club Swiet and Bjuster
DYEAR=1900
DGENRE=Blues/blurf
TTITLE0=Winterwille (blurf)
TTITLE1=File
TTITLE2=Sneintejoen
TTITLE3=Fordson Dexta blues
TTITLE4=Us Heit II
TTITLE5=De loft is donker
TTITLE6='t Libben is prachtich
TTITLE7=Swarte Ryk
TTITLE8=It Ritme
TTITLE9=De stéd (melodrama narcotica)
EXTD=
EXTT0=
EXTT1=
EXTT2=
EXTT3=
EXTT4=
EXTT5=
EXTT6=
EXTT7=
EXTT8=
EXTT9=
PLAYORDER=
